# xmcd
# 
# Track frame offsets:
#     150
#     21382
#     33937
#     45437
#     57040
#     73677
#     85240
#     103515
#     114320
#     124267
#     135992
#     148792
#     168245
#     185932
# 
# Disc length: 2689
# 
# Revision: 6
# Processed by: cddbd v1.5.2PL0 Copyright (c) Steve Scherf et al.
# Submitted via: fre:ac v1.0.31
# 
DISCID=bf0a7f0e
DTITLE=Nana Caymmi - Nana Caymmi - BIS - CD  1
DYEAR=1999
DGENRE=MPB
TTITLE0=Resposta ao tempo
TTITLE1=Só louco
TTITLE2=Mudança dos ventos
TTITLE3=A noite do meu bem
TTITLE4=Não se esqueça de mim
TTITLE5=Pra dizer adeus
TTITLE6=Carinhoso
TTITLE7=Estrada do sol
TTITLE8=Canção da manhã feliz
TTITLE9=De volta ao começo
TTITLE10=Formicida corda e flor
TTITLE11=Até quem sabe
TTITLE12=La puerta
TTITLE13=Acalanto
EXTD=YEAR: 1999
EXTT0=
EXTT1=
EXTT2=
EXTT3=
EXTT4=
EXTT5=
EXTT6=
EXTT7=
EXTT8=
EXTT9=
EXTT10=
EXTT11=
EXTT12=
EXTT13=
PLAYORDER=
